<svg id="visual" viewBox="0 0 900 450" width="900" height="450" xmlns="http://www.w3.org/2000/svg" xmlns:xlink="http://www.w3.org/1999/xlink" version="1.1"><rect x="0" y="0" width="900" height="450" fill="#0f1823"></rect><g transform="translate(467.90805422298024 222.06586763083908)"><path d="M111 -192.6C132.6 -179.7 131.3 -127.4 133.9 -88.7C136.6 -50 143.3 -25 160.6 10C177.9 45 205.9 90 203.1 128.5C200.4 167.1 166.9 199.2 128 201.7C89 204.2 44.5 177.1 -0.7 178.4C-46 179.7 -92 209.3 -112.3 196.1C-132.6 182.8 -127.2 126.6 -151.1 86.7C-174.9 46.9 -228.1 23.4 -237.5 -5.4C-247 -34.3 -212.7 -68.7 -181.5 -95.8C-150.3 -122.9 -122.1 -142.9 -92.4 -151C-62.7 -159.2 -31.3 -155.6 6.7 -167.2C44.7 -178.7 89.3 -205.4 111 -192.6" fill="#7c0000"></path></g></svg>